<svg xmlns="http://www.w3.org/2000/svg" xmlns:xlink="http://www.w3.org/1999/xlink" width="500" zoomAndPan="magnify" viewBox="0 0 375 374.999991" height="500" preserveAspectRatio="xMidYMid meet" version="1.2"><defs><clipPath id="273c85031c"><path d="M 127.589844 132.46875 L 146.996094 132.46875 L 146.996094 239.386719 L 127.589844 239.386719 Z M 127.589844 132.46875 "/></clipPath><clipPath id="d70bdde217"><path d="M 127.589844 77.300781 L 146.996094 77.300781 L 146.996094 100.347656 L 127.589844 100.347656 Z M 127.589844 77.300781 "/></clipPath><clipPath id="7aa433b58d"><path d="M 137.292969 77.300781 L 146.996094 100.316406 L 127.589844 100.316406 Z M 137.292969 77.300781 "/></clipPath><clipPath id="da333dc0b3"><path d="M 128.550781 147.582031 L 146.035156 147.582031 L 146.035156 165.066406 L 128.550781 165.066406 Z M 128.550781 147.582031 "/></clipPath><clipPath id="0f4890c6ae"><path d="M 137.292969 147.582031 C 132.464844 147.582031 128.550781 151.496094 128.550781 156.324219 C 128.550781 161.152344 132.464844 165.066406 137.292969 165.066406 C 142.121094 165.066406 146.035156 161.152344 146.035156 156.324219 C 146.035156 151.496094 142.121094 147.582031 137.292969 147.582031 Z M 137.292969 147.582031 "/></clipPath><clipPath id="6e61b03780"><path d="M 128.550781 147.582031 L 145.800781 147.582031 L 145.800781 164.832031 L 128.550781 164.832031 Z M 128.550781 147.582031 "/></clipPath><clipPath id="8539c8918e"><path d="M 137.175781 147.582031 C 132.414062 147.582031 128.550781 151.445312 128.550781 156.207031 C 128.550781 160.972656 132.414062 164.832031 137.175781 164.832031 C 141.941406 164.832031 145.800781 160.972656 145.800781 156.207031 C 145.800781 151.445312 141.941406 147.582031 137.175781 147.582031 Z M 137.175781 147.582031 "/></clipPath><clipPath id="d5dd3c720c"><path d="M 227.222656 127.652344 L 246.628906 127.652344 L 246.628906 239.378906 L 227.222656 239.378906 Z M 227.222656 127.652344 "/></clipPath></defs><g id="4eecd516d5"><path style="fill:none;stroke-width:5;stroke-linecap:butt;stroke-linejoin:miter;stroke:#dc9224;stroke-opacity:1;stroke-miterlimit:4;" d="M 0.000093079 2.50007 L 59.354322 2.50007 " transform="matrix(0.00000000130141,-0.745656,0.745656,0.00000000130141,79.292058,297.691476)"/><path style="fill:none;stroke-width:5;stroke-linecap:butt;stroke-linejoin:miter;stroke:#dc9224;stroke-opacity:1;stroke-miterlimit:4;" d="M 0.000093079 2.501735 L 59.354322 2.501735 " transform="matrix(0.00000000130141,-0.745656,0.745656,0.00000000130141,89.220505,297.691476)"/><path style="fill:none;stroke-width:5;stroke-linecap:butt;stroke-linejoin:miter;stroke:#dc9224;stroke-opacity:1;stroke-miterlimit:4;" d="M 0.000093079 2.502189 L 59.354322 2.502189 " transform="matrix(0.00000000130141,-0.745656,0.745656,0.00000000130141,98.852979,297.691476)"/><path style="fill:none;stroke-width:5;stroke-linecap:butt;stroke-linejoin:miter;stroke:#dc9224;stroke-opacity:1;stroke-miterlimit:4;" d="M 0.000093079 2.499925 L 59.354322 2.499925 " transform="matrix(0.00000000130141,-0.745656,0.745656,0.00000000130141,112.944511,297.691476)"/><path style="fill:none;stroke-width:5;stroke-linecap:butt;stroke-linejoin:miter;stroke:#dc9224;stroke-opacity:1;stroke-miterlimit:4;" d="M 0.000093079 2.500357 L 59.354322 2.500357 " transform="matrix(0.00000000130141,-0.745656,0.745656,0.00000000130141,122.577001,297.691476)"/><path style="fill:none;stroke-width:5;stroke-linecap:butt;stroke-linejoin:miter;stroke:#dc9224;stroke-opacity:1;stroke-miterlimit:4;" d="M 0.000093079 2.500801 L 59.354322 2.500801 " transform="matrix(0.00000000130141,-0.745656,0.745656,0.00000000130141,132.209482,297.691476)"/><path style="fill:none;stroke-width:5;stroke-linecap:butt;stroke-linejoin:miter;stroke:#dc9224;stroke-opacity:1;stroke-miterlimit:4;" d="M 0.000093079 2.501252 L 59.354322 2.501252 " transform="matrix(0.00000000130141,-0.745656,0.745656,0.00000000130141,141.841958,297.691476)"/><path style="fill:none;stroke-width:5;stroke-linecap:butt;stroke-linejoin:miter;stroke:#dc9224;stroke-opacity:1;stroke-miterlimit:4;" d="M 0.000093079 2.501707 L 59.354322 2.501707 " transform="matrix(0.00000000130141,-0.745656,0.745656,0.00000000130141,151.474432,297.691476)"/><path style="fill:none;stroke-width:5;stroke-linecap:butt;stroke-linejoin:miter;stroke:#dc9224;stroke-opacity:1;stroke-miterlimit:4;" d="M -0.00162906 2.500036 L 80.810876 2.500036 " transform="matrix(0,-0.75,0.75,0,165.921848,297.690184)"/><path style="fill:none;stroke-width:5;stroke-linecap:butt;stroke-linejoin:miter;stroke:#dc9224;stroke-opacity:1;stroke-miterlimit:4;" d="M -0.00162906 2.500465 L 80.810876 2.500465 " transform="matrix(0,-0.75,0.75,0,175.554339,297.690184)"/><path style="fill:none;stroke-width:5;stroke-linecap:butt;stroke-linejoin:miter;stroke:#dc9224;stroke-opacity:1;stroke-miterlimit:4;" d="M -0.00162906 2.500895 L 80.810876 2.500895 " transform="matrix(0,-0.75,0.75,0,185.186829,297.690184)"/><path style="fill:none;stroke-width:5;stroke-linecap:butt;stroke-linejoin:miter;stroke:#dc9224;stroke-opacity:1;stroke-miterlimit:4;" d="M -0.00184878 2.501541 L 80.811045 2.497508 " transform="matrix(0.00235759,-0.749996,0.749996,0.00235759,194.819171,297.684122)"/><path style="fill:none;stroke-width:5;stroke-linecap:butt;stroke-linejoin:miter;stroke:#dc9224;stroke-opacity:1;stroke-miterlimit:4;" d="M -0.00162906 2.501795 L 80.810876 2.501795 " transform="matrix(0,-0.75,0.75,0,204.451779,297.690184)"/><path style="fill:none;stroke-width:5;stroke-linecap:butt;stroke-linejoin:miter;stroke:#dc9224;stroke-opacity:1;stroke-miterlimit:4;" d="M 0.0000930746 2.499558 L 59.354322 2.499558 " transform="matrix(0,-0.745656,0.745656,0,218.901816,297.691476)"/><path style="fill:none;stroke-width:5;stroke-linecap:butt;stroke-linejoin:miter;stroke:#dc9224;stroke-opacity:1;stroke-miterlimit:4;" d="M 0.0000930746 2.49997 L 59.354322 2.49997 " transform="matrix(0,-0.745656,0.745656,0,228.534321,297.691476)"/><path style="fill:none;stroke-width:5;stroke-linecap:butt;stroke-linejoin:miter;stroke:#dc9224;stroke-opacity:1;stroke-miterlimit:4;" d="M 0.0000930746 2.500444 L 59.354322 2.500444 " transform="matrix(0,-0.745656,0.745656,0,238.16678,297.691476)"/><path style="fill:none;stroke-width:5;stroke-linecap:butt;stroke-linejoin:miter;stroke:#dc9224;stroke-opacity:1;stroke-miterlimit:4;" d="M 0.0000930746 2.500856 L 59.354322 2.500856 " transform="matrix(0,-0.745656,0.745656,0,247.799285,297.691476)"/><path style="fill:none;stroke-width:5;stroke-linecap:butt;stroke-linejoin:miter;stroke:#dc9224;stroke-opacity:1;stroke-miterlimit:4;" d="M 0.0000930746 2.501288 L 59.354322 2.501288 " transform="matrix(0,-0.745656,0.745656,0,257.431776,297.691476)"/><path style="fill:none;stroke-width:5;stroke-linecap:butt;stroke-linejoin:miter;stroke:#dc9224;stroke-opacity:1;stroke-miterlimit:4;" d="M 0.0000930746 2.501958 L 59.354322 2.501958 " transform="matrix(0,-0.745656,0.745656,0,271.880495,297.691476)"/><path style="fill:none;stroke-width:5;stroke-linecap:butt;stroke-linejoin:miter;stroke:#dc9224;stroke-opacity:1;stroke-miterlimit:4;" d="M 0.0000930746 2.498384 L 59.354322 2.498384 " transform="matrix(0,-0.745656,0.745656,0,281.808941,297.691476)"/><path style="fill:none;stroke-width:5;stroke-linecap:butt;stroke-linejoin:miter;stroke:#dc9224;stroke-opacity:1;stroke-miterlimit:4;" d="M 0.0000930746 2.498857 L 59.354322 2.498857 " transform="matrix(0,-0.745656,0.745656,0,291.441401,297.691476)"/><path style="fill:none;stroke-width:5;stroke-linecap:butt;stroke-linejoin:miter;stroke:#dc9224;stroke-opacity:1;stroke-miterlimit:4;" d="M -0.00241481 2.498927 L 83.752799 2.498927 " transform="matrix(0.75,0.000000000000001018,-0.000000000000001018,0.75,90.536967,244.254711)"/><path style="fill:none;stroke-width:5;stroke-linecap:butt;stroke-linejoin:miter;stroke:#dc9224;stroke-opacity:1;stroke-miterlimit:4;" d="M -0.000468595 2.498927 L 83.754745 2.498927 " transform="matrix(0.75,0.000000000000000509,-0.000000000000000509,0.75,220.871445,244.254711)"/><path style="fill:none;stroke-width:5;stroke-linecap:butt;stroke-linejoin:miter;stroke:#dc9224;stroke-opacity:1;stroke-miterlimit:4;" d="M -0.000490394 2.500445 L 44.539445 2.49775 " transform="matrix(0.684797,-0.305864,0.305864,0.684797,156.622259,233.635209)"/><path style="fill:none;stroke-width:5;stroke-linecap:butt;stroke-linejoin:miter;stroke:#dc9224;stroke-opacity:1;stroke-miterlimit:4;" d="M 0.000295591 2.498509 L 43.589048 2.501059 " transform="matrix(0.681817,0.312451,-0.312451,0.681817,187.846867,220.022945)"/><g clip-rule="nonzero" clip-path="url(#273c85031c)"><path style=" stroke:none;fill-rule:nonzero;fill:#dc9224;fill-opacity:1;" d="M 127.589844 132.46875 L 146.996094 132.46875 L 146.996094 239.363281 L 127.589844 239.363281 Z M 127.589844 132.46875 "/></g><path style="fill:none;stroke-width:5;stroke-linecap:butt;stroke-linejoin:miter;stroke:#dc9224;stroke-opacity:1;stroke-miterlimit:4;" d="M -0.00124944 2.498937 L 23.602919 2.498937 " transform="matrix(0,-0.75,0.75,0,127.637516,127.6475)"/><path style="fill:none;stroke-width:5;stroke-linecap:butt;stroke-linejoin:miter;stroke:#dc9224;stroke-opacity:1;stroke-miterlimit:4;" d="M -0.00124944 2.498729 L 23.602919 2.498729 " transform="matrix(0,-0.75,0.75,0,135.415016,127.6475)"/><path style="fill:none;stroke-width:5;stroke-linecap:butt;stroke-linejoin:miter;stroke:#dc9224;stroke-opacity:1;stroke-miterlimit:4;" d="M -0.00124944 2.500103 L 23.602919 2.500103 " transform="matrix(0,-0.75,0.75,0,143.121017,127.6475)"/><path style="fill:none;stroke-width:5;stroke-linecap:butt;stroke-linejoin:miter;stroke:#dc9224;stroke-opacity:1;stroke-miterlimit:4;" d="M 0.000872038 2.500062 L 25.875874 2.500062 " transform="matrix(0.75,0.000000000000001647,-0.000000000000001647,0.75,127.58919,103.257766)"/><g clip-rule="nonzero" clip-path="url(#d70bdde217)"><g clip-rule="nonzero" clip-path="url(#7aa433b58d)"><path style=" stroke:none;fill-rule:nonzero;fill:#dc9224;fill-opacity:1;" d="M 127.589844 77.300781 L 146.996094 77.300781 L 146.996094 100.347656 L 127.589844 100.347656 Z M 127.589844 77.300781 "/></g></g><g clip-rule="nonzero" clip-path="url(#da333dc0b3)"><g clip-rule="nonzero" clip-path="url(#0f4890c6ae)"><path style=" stroke:none;fill-rule:nonzero;fill:#ffffff;fill-opacity:1;" d="M 128.550781 147.582031 L 146.035156 147.582031 L 146.035156 165.066406 L 128.550781 165.066406 Z M 128.550781 147.582031 "/></g></g><g clip-rule="nonzero" clip-path="url(#6e61b03780)"><g clip-rule="nonzero" clip-path="url(#8539c8918e)"><path style="fill:none;stroke-width:4;stroke-linecap:butt;stroke-linejoin:miter;stroke:#dc9224;stroke-opacity:1;stroke-miterlimit:4;" d="M 11.646196 -0.00221686 C 5.215287 -0.00221686 -0.00224245 5.215313 -0.00224245 11.646222 C -0.00224245 18.082406 5.215287 23.29466 11.646196 23.29466 C 18.08238 23.29466 23.294634 18.082406 23.294634 11.646222 C 23.294634 5.215313 18.08238 -0.00221686 11.646196 -0.00221686 Z M 11.646196 -0.00221686 " transform="matrix(0.740443,0,0,0.740443,128.552442,147.583673)"/></g></g><path style="fill:none;stroke-width:3;stroke-linecap:butt;stroke-linejoin:miter;stroke:#dc9224;stroke-opacity:1;stroke-miterlimit:4;" d="M 0.00145658 1.498534 L 7.006665 1.498534 " transform="matrix(0,-0.75,0.75,0,136.165162,156.321405)"/><path style="fill:none;stroke-width:3;stroke-linecap:butt;stroke-linejoin:miter;stroke:#dc9224;stroke-opacity:1;stroke-miterlimit:4;" d="M 0.00029812 1.502415 L 5.984674 1.502415 " transform="matrix(-0.75,0,0,-0.75,141.781474,156.486187)"/><g clip-rule="nonzero" clip-path="url(#d5dd3c720c)"><path style="fill:none;stroke-width:8;stroke-linecap:butt;stroke-linejoin:miter;stroke:#dc9224;stroke-opacity:1;stroke-miterlimit:4;" d="M 0.000605161 0.00198418 L 25.875607 0.00198418 L 25.875607 148.970744 L 0.000605161 148.970744 Z M 0.000605161 0.00198418 " transform="matrix(0.75,0,0,0.75,227.222202,127.650856)"/></g><path style="fill:none;stroke-width:5;stroke-linecap:butt;stroke-linejoin:miter;stroke:#dc9224;stroke-opacity:1;stroke-miterlimit:4;" d="M -0.000858272 2.499135 L 31.361815 2.501834 " transform="matrix(0.439613,-0.59701,0.59701,0.439613,228.441961,217.064897)"/><path style="fill:none;stroke-width:5;stroke-linecap:butt;stroke-linejoin:miter;stroke:#dc9224;stroke-opacity:1;stroke-miterlimit:4;" d="M 0.00242153 2.499958 L 31.361764 2.498052 " transform="matrix(-0.471814,-0.571903,0.571903,-0.471814,242.962035,202.145744)"/><path style="fill:none;stroke-width:5;stroke-linecap:butt;stroke-linejoin:miter;stroke:#dc9224;stroke-opacity:1;stroke-miterlimit:4;" d="M -0.000866497 2.500449 L 31.366049 2.500024 " transform="matrix(0.439613,-0.59701,0.59701,0.439613,229.620868,181.263533)"/><path style="fill:none;stroke-width:5;stroke-linecap:butt;stroke-linejoin:miter;stroke:#dc9224;stroke-opacity:1;stroke-miterlimit:4;" d="M -0.000762976 2.499133 L 31.362644 2.500581 " transform="matrix(-0.471814,-0.571903,0.571903,-0.471814,243.695379,166.588847)"/><path style="fill:none;stroke-width:4;stroke-linecap:butt;stroke-linejoin:miter;stroke:#dc9224;stroke-opacity:1;stroke-miterlimit:4;" d="M -0.00133516 2.00185 L 95.404769 2.00185 " transform="matrix(0.959304,-0.000000000000000119,0.000000000000000119,0.959304,203.649718,111.532742)"/><path style="fill:none;stroke-width:4;stroke-linecap:butt;stroke-linejoin:miter;stroke:#dc9224;stroke-opacity:1;stroke-miterlimit:4;" d="M 0.000345422 2.00046 L 7.798665 2.00046 " transform="matrix(0,0.963248,-0.963248,0,295.548033,115.386386)"/><path style="fill:none;stroke-width:4;stroke-linecap:butt;stroke-linejoin:miter;stroke:#dc9224;stroke-opacity:1;stroke-miterlimit:4;" d="M -0.000157875 2.000884 L 8.000927 2.000884 " transform="matrix(0,0.963248,-0.963248,0,207.501567,115.386871)"/><path style="fill:none;stroke-width:4;stroke-linecap:butt;stroke-linejoin:miter;stroke:#dc9224;stroke-opacity:1;stroke-miterlimit:4;" d="M 0.00155494 2.000531 L 86.29839 1.998744 " transform="matrix(0.956774,-0.0778365,0.0778365,0.956774,212.538111,127.914191)"/><path style="fill:none;stroke-width:4;stroke-linecap:butt;stroke-linejoin:miter;stroke:#dc9224;stroke-opacity:1;stroke-miterlimit:4;" d="M -0.000181943 1.998945 L 12.877756 1.999593 " transform="matrix(0.642183,0.717947,-0.717947,0.642183,206.521191,120.653942)"/><path style="fill:none;stroke-width:5;stroke-linecap:butt;stroke-linejoin:miter;stroke:#dc9224;stroke-opacity:1;stroke-miterlimit:4;" d="M 0.00210915 2.500659 L 25.627111 2.500659 " transform="matrix(0,-0.75,0.75,0,283.737787,141.396113)"/><path style="fill:none;stroke-width:5;stroke-linecap:butt;stroke-linejoin:miter;stroke:#dc9224;stroke-opacity:1;stroke-miterlimit:4;" d="M 0.000551572 2.502064 L 25.625553 2.502064 " transform="matrix(-0.75,0.000000001309,-0.000000001309,-0.75,295.703539,141.345298)"/></g></svg>